<svg width="90" height="90" viewBox="0 0 90 90" fill="none" xmlns="http://www.w3.org/2000/svg">
<path d="M45 9C45.9281 9 46.8141 9.37969 47.4469 10.0547L67.6969 31.4297L67.7672 31.5H78.75C81.2391 31.5 83.25 33.5109 83.25 36C83.25 38.0391 81.9 39.7547 80.0438 40.3172L73.5609 69.4547C72.6469 73.575 68.9906 76.5 64.7719 76.5H25.2141C20.9953 76.5 17.3391 73.575 16.425 69.4547L9.95625 40.3172C8.1 39.7688 6.75 38.0391 6.75 36C6.75 33.5109 8.76094 31.5 11.25 31.5H22.2328L22.3031 31.4297L42.5531 10.0547C43.1859 9.37969 44.0719 9 45 9ZM45 17.2828L31.5281 31.5H58.4719L45 17.2828ZM33.75 46.125C33.75 44.2547 32.2453 42.75 30.375 42.75C28.5047 42.75 27 44.2547 27 46.125V61.875C27 63.7453 28.5047 65.25 30.375 65.25C32.2453 65.25 33.75 63.7453 33.75 61.875V46.125ZM45 42.75C43.1297 42.75 41.625 44.2547 41.625 46.125V61.875C41.625 63.7453 43.1297 65.25 45 65.25C46.8703 65.25 48.375 63.7453 48.375 61.875V46.125C48.375 44.2547 46.8703 42.75 45 42.75ZM63 46.125C63 44.2547 61.4953 42.75 59.625 42.75C57.7547 42.75 56.25 44.2547 56.25 46.125V61.875C56.25 63.7453 57.7547 65.25 59.625 65.25C61.4953 65.25 63 63.7453 63 61.875V46.125Z" fill="#F0F0F0" fill-opacity="0.61"/>
</svg>
