<svg width="241" height="101" viewBox="0 0 241 101" fill="none" xmlns="http://www.w3.org/2000/svg">
<path d="M0 50C0 35.0883 12.0883 23 27 23H59.3419C62.7498 23 66.1269 22.3548 69.2948 21.0986L112.415 3.99913C118.887 1.43276 126.1 1.46545 132.548 4.09038L174.105 21.0074C177.338 22.3233 180.795 23 184.285 23H214C228.912 23 241 35.0883 241 50V74C241 88.9117 228.912 101 214 101H27C12.0883 101 0 88.9117 0 74V50Z" fill="white"/>
<path d="M15.9 41H23.05V62.95C23.05 65.8833 23.6167 68.0333 24.75 69.4C25.8833 70.7667 27.7167 71.45 30.25 71.45C32.75 71.45 34.5833 70.7667 35.75 69.4C36.9167 68.0333 37.5 65.8833 37.5 62.95V41H44.65V62.7C44.65 67.6 43.45 71.3167 41.05 73.85C38.65 76.35 35.05 77.6 30.25 77.6C25.3167 77.6 21.6833 76.35 19.35 73.85C17.05 71.3167 15.9 67.6 15.9 62.7V41ZM53.0664 77V59.95C53.0664 59.2833 53.0497 58.4333 53.0164 57.4C52.9831 56.3333 52.9331 55.3 52.8664 54.3C52.8331 53.2667 52.7331 52.45 52.5664 51.85L52.7164 51.45C53.7164 51.0167 54.8997 50.6333 56.2664 50.3C57.6664 49.9333 59.0997 49.6333 60.5664 49.4C62.0664 49.1667 63.4831 49.05 64.8164 49.05C66.5164 49.05 68.1331 49.2333 69.6664 49.6C71.2331 49.9333 72.6331 50.55 73.8664 51.45C75.0997 52.35 76.0664 53.6 76.7664 55.2C77.4664 56.7667 77.8164 58.7833 77.8164 61.25V77H70.8164V61.55C70.8164 59.7167 70.5497 58.3167 70.0164 57.35C69.4831 56.35 68.7164 55.6667 67.7164 55.3C66.7164 54.9 65.5331 54.7 64.1664 54.7C63.1664 54.7 62.1497 54.8167 61.1164 55.05C60.1164 55.2833 59.2331 55.55 58.4664 55.85L59.5164 54.1C59.6831 54.6 59.8164 55.25 59.9164 56.05C60.0164 56.85 60.0664 57.7667 60.0664 58.8V77H53.0664ZM98.0289 41H105.179V62.95C105.179 65.8833 105.746 68.0333 106.879 69.4C108.012 70.7667 109.846 71.45 112.379 71.45C114.879 71.45 116.712 70.7667 117.879 69.4C119.046 68.0333 119.629 65.8833 119.629 62.95V41H126.779V62.7C126.779 67.6 125.579 71.3167 123.179 73.85C120.779 76.35 117.179 77.6 112.379 77.6C107.446 77.6 103.812 76.35 101.479 73.85C99.1789 71.3167 98.0289 67.6 98.0289 62.7V41ZM134.951 77V41H140.701L159.751 60.65V70.25L140.051 49.9L142.051 49.1V77H134.951ZM157.101 77V41H164.201V77H157.101ZM172.695 77V41H179.795V77H172.695ZM176.595 77V70.8H196.645V77H176.595ZM176.595 61.55V55.6H193.495V61.55H176.595ZM176.595 47.2V41H196.145V47.2H176.595ZM202.206 69.2H202.706C203.506 69.6333 204.456 70.0333 205.556 70.4C206.656 70.7667 207.856 71.0667 209.156 71.3C210.489 71.5 211.856 71.6 213.256 71.6C214.789 71.6 216.106 71.4833 217.206 71.25C218.306 70.9833 219.156 70.5667 219.756 70C220.356 69.4 220.656 68.6 220.656 67.6C220.656 66.3667 220.273 65.4667 219.506 64.9C218.739 64.3333 217.489 63.9 215.756 63.6L211.956 62.95C209.823 62.6167 207.973 62.0333 206.406 61.2C204.839 60.3333 203.623 59.1833 202.756 57.75C201.923 56.2833 201.506 54.5 201.506 52.4C201.506 49.8 202.106 47.6167 203.306 45.85C204.539 44.05 206.356 42.7 208.756 41.8C211.156 40.8667 214.106 40.4 217.606 40.4C219.206 40.4 220.756 40.55 222.256 40.85C223.789 41.1167 225.039 41.4667 226.006 41.9V48.15H225.556C224.623 47.7167 223.439 47.3167 222.006 46.95C220.606 46.5833 218.989 46.4 217.156 46.4C215.423 46.4 213.889 46.6 212.556 47C211.256 47.3667 210.239 47.9667 209.506 48.8C208.806 49.6333 208.456 50.7167 208.456 52.05C208.456 53.7167 208.939 54.8833 209.906 55.55C210.873 56.2167 212.323 56.7333 214.256 57.1L217.956 57.7C219.789 58 221.439 58.5333 222.906 59.3C224.373 60.0333 225.523 61.0667 226.356 62.4C227.223 63.7 227.656 65.3667 227.656 67.4C227.656 69.2 227.289 70.75 226.556 72.05C225.856 73.35 224.856 74.4167 223.556 75.25C222.256 76.05 220.723 76.6333 218.956 77C217.223 77.4 215.323 77.6 213.256 77.6C211.789 77.6 210.373 77.5 209.006 77.3C207.673 77.1333 206.406 76.9167 205.206 76.65C204.039 76.35 203.039 76.0333 202.206 75.7V69.2Z" fill="#221D68"/>
</svg>
