<svg width="83" height="84" viewBox="0 0 83 84" fill="none" xmlns="http://www.w3.org/2000/svg">
<path d="M29.24 3.717C29.6931 1.55968 31.6717 0 33.9675 0H42.9998C45.2956 0 47.2742 1.55968 47.7274 3.717L49.9174 13.9205C52.0471 14.7951 54.0409 15.9175 55.8533 17.244L66.0939 13.9643C68.2689 13.2646 70.6554 14.1392 71.8033 16.0633L76.3194 23.6139C77.4673 25.538 77.0595 27.9577 75.3376 29.4299L67.2871 36.3391C67.4231 37.4178 67.4835 38.5256 67.4835 39.648C67.4835 40.7704 67.408 41.8782 67.2871 42.9569L75.3527 49.8807C77.0746 51.3529 77.4673 53.7872 76.3345 55.6967L71.8184 63.2473C70.6705 65.1568 68.284 66.046 66.109 65.3463L55.8685 62.0666C54.0409 63.3931 52.0471 64.5009 49.9326 65.39L47.7576 75.579C47.2893 77.7509 45.3107 79.296 43.03 79.296H33.9977C31.7019 79.296 29.7233 77.7363 29.2702 75.579L27.0952 65.39C24.9655 64.5155 22.9869 63.3931 21.1593 62.0666L10.8734 65.3463C8.69841 66.046 6.31197 65.1714 5.16406 63.2473L0.64794 55.6967C-0.49997 53.7726 -0.0921596 51.3529 1.62971 49.8807L9.69528 42.9569C9.55935 41.8782 9.49893 40.7704 9.49893 39.648C9.49893 38.5256 9.57445 37.4178 9.69528 36.3391L1.62971 29.4153C-0.0921596 27.9431 -0.484866 25.5088 0.64794 23.5993L5.16406 16.0487C6.31197 14.1246 8.69841 13.25 10.8734 13.9497L21.114 17.2294C22.9416 15.9029 24.9353 14.7951 27.0499 13.906L29.24 3.717ZM38.4837 51.3092C45.1597 51.28 50.5518 46.0471 50.5216 39.6043C50.4914 33.1615 45.069 27.9577 38.393 27.9868C31.717 28.016 26.3249 33.2489 26.3551 39.6917C26.3853 46.1345 31.8077 51.3383 38.4837 51.3092Z" fill="#F0F0F0" fill-opacity="0.61"/>
</svg>
