<svg width="90" height="79" viewBox="0 0 90 79" fill="none" xmlns="http://www.w3.org/2000/svg">
<g clip-path="url(#clip0_19_2)">
<path d="M28.1264 11.2857C31.2379 11.2857 33.7517 8.76406 33.7517 5.64286C33.7517 2.52165 31.2379 0 28.1264 0H16.8758C7.55896 0 0 7.58259 0 16.9286V62.0714C0 71.4174 7.55896 79 16.8758 79H28.1264C31.2379 79 33.7517 76.4783 33.7517 73.3571C33.7517 70.2359 31.2379 67.7143 28.1264 67.7143H16.8758C13.7643 67.7143 11.2506 65.1926 11.2506 62.0714V16.9286C11.2506 13.8074 13.7643 11.2857 16.8758 11.2857H28.1264ZM88.352 43.4853C90.5493 41.281 90.5493 37.7013 88.352 35.4971L65.8509 12.9257C63.6535 10.7214 60.085 10.7214 57.8876 12.9257C55.6902 15.1299 55.6902 18.7096 57.8876 20.9138L70.7906 33.8571H33.7517C30.6402 33.8571 28.1264 36.3788 28.1264 39.5C28.1264 42.6212 30.6402 45.1429 33.7517 45.1429H70.7906L57.8876 58.0862C55.6902 60.2904 55.6902 63.8701 57.8876 66.0743C60.085 68.2786 63.6535 68.2786 65.8509 66.0743L88.352 43.5029V43.4853Z" fill="#F0F0F0" fill-opacity="0.61"/>
</g>
<defs>
<clipPath id="clip0_19_2">
<rect width="90" height="79" fill="white"/>
</clipPath>
</defs>
</svg>
